Format;AVI

File Size:1.22gb

Video
ID : 0
Format : MPEG-4 Visual
Format profile : Advanced Simple@L5
Format settings, BVOP : Yes
Format settings, QPel : No
Format settings, GMC : No warppoints
Format settings, Matrix : Custom
Codec ID : XVID
Codec ID/Hint : XviD
Duration : 1h 15mn
Bit rate : 1 764 Kbps
Width : 600 pixels
Height : 328 pixels
Display aspect ratio : 16:9
Frame rate : 29.970 fps
Color space : YUV
Chroma subsampling : 4:2:0
Bit depth : 8 bits
Scan type : Progressive
Bits/(Pixel*Frame) : 0.299
Stream size : 948 MiB (94%)
Writing library : XviD 1.2.1 (UTC 2008-12-04)

Audio
ID : 1
Format : MPEG Audio
Format version : Version 1
Format profile : Layer 3
Codec ID : 55
Codec ID/Hint : MP3
Duration : 1hr 15mn
Bit rate mode : Constant
Bit rate : 128 Kbps
Channel(s) : 2 channels
Sampling rate : 44.1 KHz
Video delay : 7s 350ms
Stream size : 51.6 MiB (5%)
Alignment : Split accross interleaves
Interleave, duration : 44 ms (1.33 video frame)
Interleave, preload duration : 500 ms
Writing library : LAME3.98.4

 
http://www.imdb.com/title/tt1322306/


Duration:1:35

Release Date:2011

Language:English

A family allows their young daughter's exorcism to be recorded secretly.
 
http://www.grinshare.com/img/TD2FQF.png
 
http://www.grinshare.com/img/6QK3SR.png
 
http://www.grinshare.com/img/0OLXVY.png
 
http://www.grinshare.com/img/3CDUA2.png
 
http://www.grinshare.com/img/Y00E9U.png
 
http://www.grinshare.com/img/Y80U9B.png
 
http://www.grinshare.com/img/YV2TYU.png
 
http://www.grinshare.com/img/CVO41A.png